<svg width="20" height="20" viewBox="0 0 20 20" fill="none" xmlns="http://www.w3.org/2000/svg">
<path d="M7.80609 14.3979C11.1968 14.3979 13.9456 11.6412 13.9456 8.24062C13.9456 4.84005 11.1968 2.08334 7.80609 2.08334C4.41534 2.08334 1.6666 4.84005 1.6666 8.24062C1.6666 11.6412 4.41534 14.3979 7.80609 14.3979Z" fill="url(#paint0_linear_3718_18202)"/>
<g filter="url(#filter0_b_3718_18202)">
<path d="M11.0706 17.9167C15.0817 17.9167 18.3333 14.6684 18.3333 10.6614C18.3333 6.65444 15.0817 3.40616 11.0706 3.40616C7.05954 3.40616 3.80792 6.65444 3.80792 10.6614C3.80792 14.6684 7.05954 17.9167 11.0706 17.9167Z" fill="#BFB5FF" fill-opacity="0.6"/>
<path d="M18.2688 10.6614C18.2688 14.6327 15.0461 17.8522 11.0706 17.8522C7.09509 17.8522 3.87241 14.6327 3.87241 10.6614C3.87241 6.69012 7.09509 3.47065 11.0706 3.47065C15.0461 3.47065 18.2688 6.69012 18.2688 10.6614Z" stroke="url(#paint1_linear_3718_18202)" stroke-width="0.128976"/>
</g>
<g filter="url(#filter1_b_3718_18202)">
<path d="M18.2893 10.6614C18.2893 14.644 15.0574 17.8726 11.0706 17.8726C7.0838 17.8726 3.85194 14.644 3.85194 10.6614C3.85194 6.6788 7.0838 3.45017 11.0706 3.45017C15.0574 3.45017 18.2893 6.6788 18.2893 10.6614Z" stroke="url(#paint2_linear_3718_18202)" stroke-width="0.0880261"/>
</g>
<g filter="url(#filter2_b_3718_18202)">
<path d="M7.11199 12.537V8.65671C6.90906 8.64914 6.71199 8.64304 6.52402 8.63759C6.41958 8.63458 6.33328 8.71385 6.33328 8.81271V13.3324C6.33328 13.4255 6.41012 13.5023 6.50839 13.5073C7.4873 13.5572 8.77702 13.6105 9.99217 13.8889C9.08532 13.2277 8.09273 12.929 7.33865 12.7952C7.20717 12.7719 7.11199 12.6633 7.11199 12.537Z" fill="url(#paint3_linear_3718_18202)" fill-opacity="0.9"/>
<path d="M14.999 8.62482V12.537C14.999 12.6633 14.9038 12.7719 14.7724 12.7952C14.0183 12.929 13.0257 13.2277 12.1188 13.8889C13.3321 13.6109 14.6185 13.5575 15.6026 13.5073C15.7009 13.5023 15.7777 13.4255 15.7777 13.3324V8.7936C15.7777 8.69698 15.6951 8.61855 15.593 8.61841C15.4287 8.61818 15.2268 8.61964 14.999 8.62482Z" fill="url(#paint4_linear_3718_18202)" fill-opacity="0.9"/>
<path d="M7.66754 7.39741V12.3224C8.58587 12.5133 9.76217 12.9297 10.7777 13.8318V8.66336C10.1333 7.89688 8.93865 7.40849 7.88702 7.2252C7.77291 7.20532 7.66754 7.28764 7.66754 7.39741Z" fill="url(#paint5_linear_3718_18202)" fill-opacity="0.9"/>
<path d="M14.224 7.22522C13.1775 7.40782 11.9772 7.89534 11.3333 8.66336V13.8318C12.3488 12.9297 13.5251 12.5133 14.4435 12.3224V7.39745C14.4435 7.28768 14.3381 7.20532 14.224 7.22522Z" fill="url(#paint6_linear_3718_18202)" fill-opacity="0.9"/>
<path d="M7.33289 12.8277C7.18692 12.8019 7.07895 12.6806 7.07895 12.537V8.68855C6.88736 8.68152 6.70115 8.67578 6.52307 8.67062C6.43543 8.66809 6.36632 8.73423 6.36632 8.81271V13.3324C6.36632 13.4064 6.42778 13.4702 6.51008 13.4743C6.56021 13.4769 6.61117 13.4795 6.6629 13.4821C7.57643 13.528 8.73133 13.5861 9.83931 13.8213C8.97479 13.2295 8.04697 12.9545 7.33289 12.8277ZM7.33289 12.8277C7.33289 12.8277 7.33288 12.8277 7.33288 12.8277L7.33865 12.7952L7.33289 12.8277ZM15.0321 12.537V8.65714C15.2463 8.65254 15.4367 8.65123 15.5929 8.65145C15.6785 8.65157 15.7447 8.71688 15.7447 8.7936V13.3324C15.7447 13.4064 15.6832 13.4701 15.6009 13.4743C15.5515 13.4769 15.5014 13.4794 15.4505 13.4819C14.5326 13.5282 13.3791 13.5862 12.2717 13.8213C13.1362 13.2295 14.0641 12.9545 14.7781 12.8277C14.9241 12.8019 15.0321 12.6806 15.0321 12.537ZM7.70058 12.2955V7.39741C7.70058 7.31048 7.78509 7.24098 7.88135 7.25775C8.92526 7.43969 10.1056 7.92276 10.7447 8.67545V13.7589C9.74595 12.8935 8.602 12.4862 7.70058 12.2955ZM11.3663 8.67543C12.0048 7.92127 13.1908 7.43904 14.2297 7.25777C14.3259 7.24098 14.4104 7.31051 14.4104 7.39745V12.2955C13.509 12.4862 12.3651 12.8935 11.3663 13.7589V8.67543Z" stroke="url(#paint7_linear_3718_18202)" stroke-width="0.0660795"/>
</g>
<defs>
<filter id="filter0_b_3718_18202" x="1.12792" y="0.726158" width="19.8854" height="19.8705" filterUnits="userSpaceOnUse" color-interpolation-filters="sRGB">
<feFlood flood-opacity="0" result="BackgroundImageFix"/>
<feGaussianBlur in="BackgroundImageFix" stdDeviation="1.34"/>
<feComposite in2="SourceAlpha" operator="in" result="effect1_backgroundBlur_3718_18202"/>
<feBlend mode="normal" in="SourceGraphic" in2="effect1_backgroundBlur_3718_18202" result="shape"/>
</filter>
<filter id="filter1_b_3718_18202" x="2.33084" y="1.92907" width="17.4796" height="17.4647" filterUnits="userSpaceOnUse" color-interpolation-filters="sRGB">
<feFlood flood-opacity="0" result="BackgroundImageFix"/>
<feGaussianBlur in="BackgroundImageFix" stdDeviation="0.738543"/>
<feComposite in2="SourceAlpha" operator="in" result="effect1_backgroundBlur_3718_18202"/>
<feBlend mode="normal" in="SourceGraphic" in2="effect1_backgroundBlur_3718_18202" result="shape"/>
</filter>
<filter id="filter2_b_3718_18202" x="4.53721" y="5.42616" width="13.0366" height="10.2588" filterUnits="userSpaceOnUse" color-interpolation-filters="sRGB">
<feFlood flood-opacity="0" result="BackgroundImageFix"/>
<feGaussianBlur in="BackgroundImageFix" stdDeviation="0.898034"/>
<feComposite in2="SourceAlpha" operator="in" result="effect1_backgroundBlur_3718_18202"/>
<feBlend mode="normal" in="SourceGraphic" in2="effect1_backgroundBlur_3718_18202" result="shape"/>
</filter>
<linearGradient id="paint0_linear_3718_18202" x1="1.29145" y1="-0.288974" x2="17.3608" y2="6.27805" gradientUnits="userSpaceOnUse">
<stop stop-color="#917FFB"/>
<stop offset="1" stop-color="#3F2DAF"/>
</linearGradient>
<linearGradient id="paint1_linear_3718_18202" x1="2.7704" y1="4.72529" x2="23.287" y2="15.3294" gradientUnits="userSpaceOnUse">
<stop stop-color="white"/>
<stop offset="1" stop-color="white" stop-opacity="0"/>
</linearGradient>
<linearGradient id="paint2_linear_3718_18202" x1="5.17492" y1="5.16194" x2="14.859" y2="18.3294" gradientUnits="userSpaceOnUse">
<stop stop-color="#D7E8DC"/>
<stop offset="1" stop-color="#E9E9E9" stop-opacity="0.26"/>
</linearGradient>
<linearGradient id="paint3_linear_3718_18202" x1="1.0859" y1="0.185169" x2="5.77481" y2="14.8065" gradientUnits="userSpaceOnUse">
<stop stop-color="white" stop-opacity="0"/>
<stop offset="0.979167" stop-color="white"/>
</linearGradient>
<linearGradient id="paint4_linear_3718_18202" x1="1.0859" y1="0.185169" x2="5.77481" y2="14.8065" gradientUnits="userSpaceOnUse">
<stop stop-color="white" stop-opacity="0"/>
<stop offset="0.979167" stop-color="white"/>
</linearGradient>
<linearGradient id="paint5_linear_3718_18202" x1="1.0859" y1="0.185169" x2="5.77481" y2="14.8065" gradientUnits="userSpaceOnUse">
<stop stop-color="white" stop-opacity="0"/>
<stop offset="0.979167" stop-color="white"/>
</linearGradient>
<linearGradient id="paint6_linear_3718_18202" x1="1.0859" y1="0.185169" x2="5.77481" y2="14.8065" gradientUnits="userSpaceOnUse">
<stop stop-color="white" stop-opacity="0"/>
<stop offset="0.979167" stop-color="white"/>
</linearGradient>
<linearGradient id="paint7_linear_3718_18202" x1="18.1549" y1="10.9209" x2="2.09289" y2="10.9209" gradientUnits="userSpaceOnUse">
<stop stop-color="white" stop-opacity="0"/>
<stop offset="1" stop-color="white"/>
</linearGradient>
</defs>
</svg>
