<svg width="16" height="16" viewBox="0 0 16 16" fill="none" xmlns="http://www.w3.org/2000/svg">
<path fill-rule="evenodd" clip-rule="evenodd" d="M9.43262 5.14849C9.43262 6.8949 8.01014 8.31065 6.25543 8.31065C4.50071 8.31065 3.07824 6.8949 3.07824 5.14849C3.07824 3.40208 4.50071 1.98633 6.25543 1.98633C8.01014 1.98633 9.43262 3.40208 9.43262 5.14849ZM10.3695 14.3377C10.899 13.8715 11.1774 13.2431 11.1774 12.5066C11.1774 12.3039 11.1706 12.1147 11.1502 11.912C11.1298 11.6688 11.0959 11.4661 11.0619 11.2701C11.0076 10.9728 10.9465 10.7634 10.8854 10.5877C10.7836 10.3174 10.675 10.0877 10.5392 9.87146C10.3831 9.62822 10.1998 9.40524 9.97573 9.19578C9.69739 8.96605 9.41225 8.79714 9.13391 8.70254C8.82162 8.58768 8.47539 8.52687 8.07485 8.52687C7.6743 8.52687 7.37559 8.68227 7.16514 8.81741L6.77817 9.04038L6.7578 9.05389C6.73065 9.06741 6.66276 9.09443 6.53377 9.13497C6.34368 9.18227 6.15359 9.18227 5.9703 9.13497C5.8481 9.09443 5.75984 9.06065 5.71232 9.03362L5.3593 8.82416C5.13526 8.68903 4.83655 8.52687 4.42922 8.52687C4.02189 8.52687 3.67566 8.58768 3.39731 8.70254C3.05108 8.81741 2.75916 8.98632 2.52155 9.2093C2.3043 9.39849 2.11422 9.62146 1.95807 9.87146C1.79514 10.1417 1.68652 10.3782 1.61863 10.5877C1.55074 10.7836 1.49643 11.0066 1.43533 11.2836C1.40138 11.5066 1.37423 11.7228 1.35386 11.912C1.3335 12.1147 1.3335 12.3039 1.3335 12.5066C1.3335 13.2431 1.60505 13.8715 2.13458 14.3377C2.63696 14.7769 3.27511 14.9998 4.02189 14.9998H8.47539C9.22217 14.9998 9.86032 14.7836 10.3695 14.3377Z" fill="url(#paint0_linear_842_24153)"/>
<g filter="url(#filter0_b_842_24153)">
<path fill-rule="evenodd" clip-rule="evenodd" d="M14.1099 6.56081C14.4562 6.00676 14.6666 5.35811 14.6666 4.65541C14.6666 2.63514 12.9558 1 10.8377 1C8.71959 1 7.00879 2.63514 7.00879 4.65541C7.00879 6.67568 8.72637 8.31081 10.8377 8.31081C11.5709 8.31081 12.2498 8.12162 12.8269 7.77027L14.2321 8.25676C14.4698 8.34459 14.6938 8.12838 14.6055 7.89865L14.1032 6.56081H14.1099Z" fill="#6AE092" fill-opacity="0.6"/>
</g>
<g filter="url(#filter1_b_842_24153)">
<path fill-rule="evenodd" clip-rule="evenodd" d="M14.1032 6.56081L14.6055 7.89865C14.6938 8.12838 14.4698 8.34459 14.2321 8.25676L12.8269 7.77027C12.2498 8.12162 11.5709 8.31081 10.8377 8.31081C8.72637 8.31081 7.00879 6.67568 7.00879 4.65541C7.00879 2.63514 8.71958 1 10.8377 1C12.9558 1 14.6666 2.63514 14.6666 4.65541C14.6666 5.3567 14.457 6.00416 14.112 6.55748C14.1113 6.55859 14.1106 6.5597 14.1099 6.56081H14.1032ZM14.0352 6.42748H13.9107L14.4807 7.94552L14.4811 7.94646C14.5242 8.05871 14.419 8.18369 14.2784 8.1317L12.8111 7.62373L12.7575 7.65639C12.2024 7.9944 11.5477 8.17748 10.8377 8.17748C8.794 8.17748 7.14212 6.59617 7.14212 4.65541C7.14212 2.71449 8.78737 1.13333 10.8377 1.13333C12.8881 1.13333 14.5333 2.71449 14.5333 4.65541C14.5333 5.30464 14.3465 5.90674 14.0352 6.42748Z" fill="url(#paint1_linear_842_24153)"/>
</g>
<g filter="url(#filter2_b_842_24153)">
<path fill-rule="evenodd" clip-rule="evenodd" d="M9.40526 5.15543C9.1337 5.15543 8.90967 4.93246 8.90967 4.66219C8.90967 4.39192 9.1337 4.16895 9.40526 4.16895C9.67681 4.16895 9.90763 4.39192 9.90763 4.66219C9.90763 4.93246 9.67681 5.15543 9.40526 5.15543Z" fill="url(#paint2_linear_842_24153)" fill-opacity="0.9"/>
</g>
<g filter="url(#filter3_b_842_24153)">
<path fill-rule="evenodd" clip-rule="evenodd" d="M8.97846 4.66219C8.97846 4.89416 9.17138 5.08664 9.40526 5.08664C9.64035 5.08664 9.83885 4.89296 9.83885 4.66219C9.83885 4.43142 9.64035 4.23773 9.40526 4.23773C9.17138 4.23773 8.97846 4.43022 8.97846 4.66219ZM8.90967 4.66219C8.90967 4.93246 9.1337 5.15543 9.40526 5.15543C9.67681 5.15543 9.90763 4.93246 9.90763 4.66219C9.90763 4.39192 9.67681 4.16895 9.40526 4.16895C9.1337 4.16895 8.90967 4.39192 8.90967 4.66219Z" fill="url(#paint3_linear_842_24153)"/>
</g>
<g filter="url(#filter4_b_842_24153)">
<path fill-rule="evenodd" clip-rule="evenodd" d="M10.9263 5.15543C10.6547 5.15543 10.4307 4.93246 10.4307 4.66219C10.4307 4.39192 10.6547 4.16895 10.9263 4.16895C11.1978 4.16895 11.4286 4.39192 11.4286 4.66219C11.4286 4.93246 11.1978 5.15543 10.9263 5.15543Z" fill="url(#paint4_linear_842_24153)" fill-opacity="0.9"/>
</g>
<g filter="url(#filter5_b_842_24153)">
<path fill-rule="evenodd" clip-rule="evenodd" d="M10.4995 4.66219C10.4995 4.89416 10.6924 5.08664 10.9263 5.08664C11.1613 5.08664 11.3598 4.89296 11.3598 4.66219C11.3598 4.43142 11.1613 4.23773 10.9263 4.23773C10.6924 4.23773 10.4995 4.43022 10.4995 4.66219ZM10.4307 4.66219C10.4307 4.93246 10.6547 5.15543 10.9263 5.15543C11.1978 5.15543 11.4286 4.93246 11.4286 4.66219C11.4286 4.39192 11.1978 4.16895 10.9263 4.16895C10.6547 4.16895 10.4307 4.39192 10.4307 4.66219Z" fill="url(#paint5_linear_842_24153)"/>
</g>
<g filter="url(#filter6_b_842_24153)">
<path fill-rule="evenodd" clip-rule="evenodd" d="M12.4805 5.15543C12.2089 5.15543 11.9849 4.93246 11.9849 4.66219C11.9849 4.39192 12.2089 4.16895 12.4805 4.16895C12.752 4.16895 12.9828 4.39192 12.9828 4.66219C12.9828 4.93246 12.752 5.15543 12.4805 5.15543Z" fill="url(#paint6_linear_842_24153)" fill-opacity="0.9"/>
</g>
<g filter="url(#filter7_b_842_24153)">
<path fill-rule="evenodd" clip-rule="evenodd" d="M12.0537 4.66219C12.0537 4.89416 12.2466 5.08664 12.4805 5.08664C12.7155 5.08664 12.914 4.89296 12.914 4.66219C12.914 4.43142 12.7155 4.23773 12.4805 4.23773C12.2466 4.23773 12.0537 4.43022 12.0537 4.66219ZM11.9849 4.66219C11.9849 4.93246 12.2089 5.15543 12.4805 5.15543C12.752 5.15543 12.9828 4.93246 12.9828 4.66219C12.9828 4.39192 12.752 4.16895 12.4805 4.16895C12.2089 4.16895 11.9849 4.39192 11.9849 4.66219Z" fill="url(#paint7_linear_842_24153)"/>
</g>
<defs>
<filter id="filter0_b_842_24153" x="4.32397" y="-1.68481" width="13.0273" height="12.6807" filterUnits="userSpaceOnUse" color-interpolation-filters="sRGB">
<feFlood flood-opacity="0" result="BackgroundImageFix"/>
<feGaussianBlur in="BackgroundImageFix" stdDeviation="1.34241"/>
<feComposite in2="SourceAlpha" operator="in" result="effect1_backgroundBlur_842_24153"/>
<feBlend mode="normal" in="SourceGraphic" in2="effect1_backgroundBlur_842_24153" result="shape"/>
</filter>
<filter id="filter1_b_842_24153" x="4.32397" y="-1.68481" width="13.0273" height="12.6807" filterUnits="userSpaceOnUse" color-interpolation-filters="sRGB">
<feFlood flood-opacity="0" result="BackgroundImageFix"/>
<feGaussianBlur in="BackgroundImageFix" stdDeviation="1.34241"/>
<feComposite in2="SourceAlpha" operator="in" result="effect1_backgroundBlur_842_24153"/>
<feBlend mode="normal" in="SourceGraphic" in2="effect1_backgroundBlur_842_24153" result="shape"/>
</filter>
<filter id="filter2_b_842_24153" x="6.10518" y="1.36445" width="6.60703" height="6.59531" filterUnits="userSpaceOnUse" color-interpolation-filters="sRGB">
<feFlood flood-opacity="0" result="BackgroundImageFix"/>
<feGaussianBlur in="BackgroundImageFix" stdDeviation="1.40225"/>
<feComposite in2="SourceAlpha" operator="in" result="effect1_backgroundBlur_842_24153"/>
<feBlend mode="normal" in="SourceGraphic" in2="effect1_backgroundBlur_842_24153" result="shape"/>
</filter>
<filter id="filter3_b_842_24153" x="6.10518" y="1.36445" width="6.60703" height="6.59531" filterUnits="userSpaceOnUse" color-interpolation-filters="sRGB">
<feFlood flood-opacity="0" result="BackgroundImageFix"/>
<feGaussianBlur in="BackgroundImageFix" stdDeviation="1.40225"/>
<feComposite in2="SourceAlpha" operator="in" result="effect1_backgroundBlur_842_24153"/>
<feBlend mode="normal" in="SourceGraphic" in2="effect1_backgroundBlur_842_24153" result="shape"/>
</filter>
<filter id="filter4_b_842_24153" x="7.62617" y="1.36445" width="6.60703" height="6.59531" filterUnits="userSpaceOnUse" color-interpolation-filters="sRGB">
<feFlood flood-opacity="0" result="BackgroundImageFix"/>
<feGaussianBlur in="BackgroundImageFix" stdDeviation="1.40225"/>
<feComposite in2="SourceAlpha" operator="in" result="effect1_backgroundBlur_842_24153"/>
<feBlend mode="normal" in="SourceGraphic" in2="effect1_backgroundBlur_842_24153" result="shape"/>
</filter>
<filter id="filter5_b_842_24153" x="7.62617" y="1.36445" width="6.60703" height="6.59531" filterUnits="userSpaceOnUse" color-interpolation-filters="sRGB">
<feFlood flood-opacity="0" result="BackgroundImageFix"/>
<feGaussianBlur in="BackgroundImageFix" stdDeviation="1.40225"/>
<feComposite in2="SourceAlpha" operator="in" result="effect1_backgroundBlur_842_24153"/>
<feBlend mode="normal" in="SourceGraphic" in2="effect1_backgroundBlur_842_24153" result="shape"/>
</filter>
<filter id="filter6_b_842_24153" x="9.18037" y="1.36445" width="6.60703" height="6.59531" filterUnits="userSpaceOnUse" color-interpolation-filters="sRGB">
<feFlood flood-opacity="0" result="BackgroundImageFix"/>
<feGaussianBlur in="BackgroundImageFix" stdDeviation="1.40225"/>
<feComposite in2="SourceAlpha" operator="in" result="effect1_backgroundBlur_842_24153"/>
<feBlend mode="normal" in="SourceGraphic" in2="effect1_backgroundBlur_842_24153" result="shape"/>
</filter>
<filter id="filter7_b_842_24153" x="9.18037" y="1.36445" width="6.60703" height="6.59531" filterUnits="userSpaceOnUse" color-interpolation-filters="sRGB">
<feFlood flood-opacity="0" result="BackgroundImageFix"/>
<feGaussianBlur in="BackgroundImageFix" stdDeviation="1.40225"/>
<feComposite in2="SourceAlpha" operator="in" result="effect1_backgroundBlur_842_24153"/>
<feBlend mode="normal" in="SourceGraphic" in2="effect1_backgroundBlur_842_24153" result="shape"/>
</filter>
<linearGradient id="paint0_linear_842_24153" x1="1.03275" y1="-0.520637" x2="14.7485" y2="3.7316" gradientUnits="userSpaceOnUse">
<stop stop-color="#6CDF95"/>
<stop offset="1" stop-color="#2C8C4F"/>
</linearGradient>
<linearGradient id="paint1_linear_842_24153" x1="6.4618" y1="1.66462" x2="17.066" y2="7.39976" gradientUnits="userSpaceOnUse">
<stop stop-color="white"/>
<stop offset="1" stop-color="white" stop-opacity="0"/>
</linearGradient>
<linearGradient id="paint2_linear_842_24153" x1="10.6558" y1="4.05251" x2="10.6192" y2="5.03655" gradientUnits="userSpaceOnUse">
<stop stop-color="white" stop-opacity="0"/>
<stop offset="0.979167" stop-color="white"/>
</linearGradient>
<linearGradient id="paint3_linear_842_24153" x1="10.1588" y1="4.71624" x2="8.4616" y2="4.71624" gradientUnits="userSpaceOnUse">
<stop stop-color="white" stop-opacity="0"/>
<stop offset="1" stop-color="white"/>
</linearGradient>
<linearGradient id="paint4_linear_842_24153" x1="12.1768" y1="4.05251" x2="12.1402" y2="5.03655" gradientUnits="userSpaceOnUse">
<stop stop-color="white" stop-opacity="0"/>
<stop offset="0.979167" stop-color="white"/>
</linearGradient>
<linearGradient id="paint5_linear_842_24153" x1="11.6798" y1="4.71624" x2="9.9826" y2="4.71624" gradientUnits="userSpaceOnUse">
<stop stop-color="white" stop-opacity="0"/>
<stop offset="1" stop-color="white"/>
</linearGradient>
<linearGradient id="paint6_linear_842_24153" x1="13.731" y1="4.05251" x2="13.6944" y2="5.03655" gradientUnits="userSpaceOnUse">
<stop stop-color="white" stop-opacity="0"/>
<stop offset="0.979167" stop-color="white"/>
</linearGradient>
<linearGradient id="paint7_linear_842_24153" x1="13.234" y1="4.71624" x2="11.5368" y2="4.71624" gradientUnits="userSpaceOnUse">
<stop stop-color="white" stop-opacity="0"/>
<stop offset="1" stop-color="white"/>
</linearGradient>
</defs>
</svg>
