<svg width="16" height="16" viewBox="0 0 16 16" fill="none" xmlns="http://www.w3.org/2000/svg">
<path fill-rule="evenodd" clip-rule="evenodd" d="M4.42868 3.82083V3.8193C4.42868 2.44643 5.60127 1.3335 7.04773 1.3335H8.9525C10.399 1.3335 11.5715 2.44643 11.5715 3.81929V3.82083C12.902 3.83004 13.6305 3.89471 14.1089 4.34881C14.6668 4.87832 14.6668 5.73055 14.6668 7.43501V9.24286H1.3335V7.43501C1.3335 5.73055 1.3335 4.87832 1.89139 4.34881C2.36982 3.89472 3.0983 3.83004 4.42868 3.82083ZM5.85726 3.8193C5.85726 3.19526 6.39025 2.68939 7.04773 2.68939H8.9525C9.60998 2.68939 10.143 3.19526 10.143 3.81929L5.85726 3.8193Z" fill="url(#paint0_linear_842_24145)"/>
<g filter="url(#filter0_b_842_24145)">
<path d="M1.3335 9.62744C1.3335 7.74182 1.3335 6.79901 1.91928 6.21323C2.50507 5.62744 3.44788 5.62744 5.3335 5.62744H10.6668C12.5524 5.62744 13.4953 5.62744 14.081 6.21323C14.6668 6.79901 14.6668 7.74182 14.6668 9.62744V10.6667C14.6668 12.5523 14.6668 13.4951 14.081 14.0809C13.4953 14.6667 12.5524 14.6667 10.6668 14.6667H5.3335C3.44788 14.6667 2.50507 14.6667 1.91928 14.0809C1.3335 13.4951 1.3335 12.5523 1.3335 10.6667V9.62744Z" fill="#F8B77B" fill-opacity="0.6"/>
</g>
<g filter="url(#filter1_b_842_24145)">
<path fill-rule="evenodd" clip-rule="evenodd" d="M10.6668 5.76077H5.3335C4.38692 5.76077 3.6904 5.76106 3.15672 5.83281C2.62688 5.90404 2.27755 6.04352 2.01356 6.30751C1.74957 6.5715 1.6101 6.92082 1.53886 7.45066C1.46711 7.98434 1.46683 8.68086 1.46683 9.62744V10.6667C1.46683 11.6133 1.46711 12.3098 1.53886 12.8435C1.6101 13.3733 1.74957 13.7227 2.01356 13.9866C2.27755 14.2506 2.62688 14.3901 3.15672 14.4613C3.6904 14.5331 4.38692 14.5334 5.3335 14.5334H10.6668C11.6134 14.5334 12.3099 14.5331 12.8436 14.4613C13.3735 14.3901 13.7228 14.2506 13.9868 13.9866C14.2508 13.7227 14.3902 13.3733 14.4615 12.8435C14.5332 12.3098 14.5335 11.6133 14.5335 10.6667V9.62744C14.5335 8.68086 14.5332 7.98434 14.4615 7.45066C14.3902 6.92082 14.2508 6.5715 13.9868 6.30751C13.7228 6.04352 13.3735 5.90404 12.8436 5.83281C12.3099 5.76106 11.6134 5.76077 10.6668 5.76077ZM1.91928 6.21323C1.3335 6.79901 1.3335 7.74182 1.3335 9.62744V10.6667C1.3335 12.5523 1.3335 13.4951 1.91928 14.0809C2.50507 14.6667 3.44788 14.6667 5.3335 14.6667H10.6668C12.5524 14.6667 13.4953 14.6667 14.081 14.0809C14.6668 13.4951 14.6668 12.5523 14.6668 10.6667V9.62744C14.6668 7.74182 14.6668 6.79901 14.081 6.21323C13.4953 5.62744 12.5524 5.62744 10.6668 5.62744H5.3335C3.44788 5.62744 2.50507 5.62744 1.91928 6.21323Z" fill="url(#paint1_linear_842_24145)"/>
</g>
<g filter="url(#filter2_b_842_24145)">
<path d="M9.51498 7.37158C9.7548 7.37158 9.94922 7.566 9.94922 7.80582C9.94922 8.04564 9.7548 8.24006 9.51498 8.24006L6.54034 8.24006C6.30052 8.24006 6.1061 8.04564 6.1061 7.80582C6.1061 7.566 6.30052 7.37158 6.54034 7.37158L9.51498 7.37158Z" fill="url(#paint2_linear_842_24145)" fill-opacity="0.9"/>
</g>
<g filter="url(#filter3_b_842_24145)">
<path fill-rule="evenodd" clip-rule="evenodd" d="M6.54034 8.1671L9.51498 8.1671C9.71451 8.1671 9.87627 8.00535 9.87627 7.80582C9.87627 7.60629 9.71451 7.44453 9.51498 7.44453L6.54034 7.44453C6.34081 7.44453 6.17905 7.60629 6.17905 7.80582C6.17905 8.00535 6.34081 8.1671 6.54034 8.1671ZM9.94922 7.80582C9.94922 7.566 9.7548 7.37158 9.51498 7.37158L6.54034 7.37158C6.30052 7.37158 6.1061 7.566 6.1061 7.80582C6.1061 8.04564 6.30052 8.24006 6.54034 8.24006L9.51498 8.24006C9.7548 8.24006 9.94922 8.04564 9.94922 7.80582Z" fill="url(#paint3_linear_842_24145)"/>
</g>
<defs>
<filter id="filter0_b_842_24145" x="-3.00326" y="1.29068" width="22.007" height="17.7126" filterUnits="userSpaceOnUse" color-interpolation-filters="sRGB">
<feFlood flood-opacity="0" result="BackgroundImageFix"/>
<feGaussianBlur in="BackgroundImageFix" stdDeviation="2.16838"/>
<feComposite in2="SourceAlpha" operator="in" result="effect1_backgroundBlur_842_24145"/>
<feBlend mode="normal" in="SourceGraphic" in2="effect1_backgroundBlur_842_24145" result="shape"/>
</filter>
<filter id="filter1_b_842_24145" x="-3.00326" y="1.29068" width="22.007" height="17.7126" filterUnits="userSpaceOnUse" color-interpolation-filters="sRGB">
<feFlood flood-opacity="0" result="BackgroundImageFix"/>
<feGaussianBlur in="BackgroundImageFix" stdDeviation="2.16838"/>
<feComposite in2="SourceAlpha" operator="in" result="effect1_backgroundBlur_842_24145"/>
<feBlend mode="normal" in="SourceGraphic" in2="effect1_backgroundBlur_842_24145" result="shape"/>
</filter>
<filter id="filter2_b_842_24145" x="3.13166" y="4.39729" width="9.79185" height="6.81724" filterUnits="userSpaceOnUse" color-interpolation-filters="sRGB">
<feFlood flood-opacity="0" result="BackgroundImageFix"/>
<feGaussianBlur in="BackgroundImageFix" stdDeviation="1.48715"/>
<feComposite in2="SourceAlpha" operator="in" result="effect1_backgroundBlur_842_24145"/>
<feBlend mode="normal" in="SourceGraphic" in2="effect1_backgroundBlur_842_24145" result="shape"/>
</filter>
<filter id="filter3_b_842_24145" x="3.13166" y="4.39729" width="9.79185" height="6.81724" filterUnits="userSpaceOnUse" color-interpolation-filters="sRGB">
<feFlood flood-opacity="0" result="BackgroundImageFix"/>
<feGaussianBlur in="BackgroundImageFix" stdDeviation="1.48715"/>
<feComposite in2="SourceAlpha" operator="in" result="effect1_backgroundBlur_842_24145"/>
<feBlend mode="normal" in="SourceGraphic" in2="effect1_backgroundBlur_842_24145" result="shape"/>
</filter>
<linearGradient id="paint0_linear_842_24145" x1="0.926141" y1="-0.190191" x2="14.7097" y2="9.33307" gradientUnits="userSpaceOnUse">
<stop stop-color="#FFC3A4"/>
<stop offset="1" stop-color="#E6791E"/>
</linearGradient>
<linearGradient id="paint1_linear_842_24145" x1="0.381115" y1="6.44919" x2="15.4845" y2="17.952" gradientUnits="userSpaceOnUse">
<stop stop-color="white"/>
<stop offset="1" stop-color="white" stop-opacity="0"/>
</linearGradient>
<linearGradient id="paint2_linear_842_24145" x1="10.4028" y1="8.89112" x2="6.66753" y2="8.26906" gradientUnits="userSpaceOnUse">
<stop stop-color="white" stop-opacity="0"/>
<stop offset="0.979167" stop-color="white"/>
</linearGradient>
<linearGradient id="paint3_linear_842_24145" x1="9.94922" y1="7.80582" x2="6.1061" y2="7.80582" gradientUnits="userSpaceOnUse">
<stop stop-color="white" stop-opacity="0"/>
<stop offset="1" stop-color="white"/>
</linearGradient>
</defs>
</svg>
